<?xml version="1.0" standalone="no"?>
<!DOCTYPE svg PUBLIC "-//W3C//DTD SVG 20010904//EN"
 "http://www.w3.org/TR/2001/REC-SVG-20010904/DTD/svg10.dtd">
<svg version="1.0" xmlns="http://www.w3.org/2000/svg"
 width="736.000000pt" height="736.000000pt" viewBox="0 0 736.000000 736.000000"
 preserveAspectRatio="xMidYMid meet">
<metadata>
Created by potrace 1.11, written by Peter Selinger 2001-2013
</metadata>
<g transform="translate(0.000000,736.000000) scale(0.100000,-0.100000)"
fill="#000000" stroke="none">
<path d="M785 6880 c311 -311 487 -479 500 -480 11 0 28 0 38 0 9 0 24 0 32 0
8 0 22 0 30 0 8 0 22 0 30 0 8 0 22 0 30 0 8 0 22 0 30 0 8 0 22 0 30 0 8 0
21 0 28 0 6 0 31 0 54 -2 24 -1 45 1 48 4 3 3 22 2 41 -2 18 -4 34 -4 34 0 0
4 18 4 40 0 22 -4 40 -5 40 -1 0 3 16 6 35 6 19 0 35 -3 35 -7 0 -4 6 -5 14
-2 21 8 106 10 106 2 0 -4 13 -3 30 2 16 5 30 6 30 2 0 -4 16 -7 35 -7 19 0
35 3 35 7 0 4 14 3 30 -2 17 -5 30 -5 30 0 0 5 13 5 30 0 17 -5 30 -5 30 0 0
5 13 5 30 0 17 -5 30 -5 30 0 0 5 13 5 30 0 17 -5 30 -5 30 0 0 5 13 5 29 0
15 -4 34 -4 42 0 7 5 20 5 29 0 9 -5 22 -5 30 0 8 5 21 5 29 1 9 -4 32 -4 51
-1 19 3 47 3 63 -1 15 -4 27 -4 27 1 0 5 13 5 30 0 17 -5 30 -5 30 0 0 5 13 5
30 0 17 -5 30 -5 30 0 0 5 13 5 30 0 17 -5 30 -5 30 0 0 5 13 5 30 0 17 -5 30
-6 30 -2 0 4 16 7 35 7 19 0 35 -3 35 -7 0 -4 14 -3 30 2 17 5 30 5 30 0 0 -5
13 -5 30 0 17 5 30 5 30 0 0 -5 13 -5 30 0 16 5 30 5 30 1 0 -4 22 -5 48 -1
27 3 61 3 75 -1 15 -4 27 -3 27 1 0 5 13 5 30 0 17 -5 30 -5 30 0 0 5 13 5 30
0 17 -5 30 -5 30 0 0 5 13 5 30 0 17 -5 30 -5 30 0 0 5 13 5 30 0 16 -5 30 -6
30 -2 0 4 16 7 35 7 19 0 35 -3 35 -7 0 -4 14 -3 30 2 17 5 30 5 30 0 0 -5 13
-5 30 0 17 5 30 5 30 0 0 -5 13 -5 30 0 17 5 30 5 30 1 0 -4 27 -4 60 -1 33 3
60 3 60 -1 0 -4 14 -4 30 1 17 5 30 6 30 2 0 -4 16 -7 35 -7 19 0 35 3 35 7 0
4 13 3 30 -2 17 -5 30 -5 30 0 0 5 13 5 30 0 17 -5 30 -5 30 0 0 5 13 5 30 0
17 -5 30 -5 30 0 0 5 13 5 30 0 17 -5 30 -5 30 0 0 5 13 5 29 0 15 -4 34 -4
42 0 7 5 20 5 29 0 9 -5 22 -5 30 0 7 4 20 6 28 2 19 -7 80 -7 88 0 3 3 21 2
40 -2 18 -4 34 -4 34 0 0 4 18 4 40 0 22 -4 40 -5 40 -1 0 3 16 6 35 6 19 0
35 -3 35 -7 0 -4 12 -3 28 0 15 4 41 6 57 5 17 -2 36 -3 43 -3 6 0 19 0 27 0
8 0 22 0 30 0 8 0 22 0 30 0 8 0 22 0 30 0 8 0 22 0 30 0 8 0 22 0 30 0 8 0
22 0 30 0 8 0 22 0 30 0 8 0 22 0 30 0 8 0 22 0 30 0 8 0 22 0 30 0 8 0 22 0
30 0 8 0 22 0 30 0 8 0 22 0 30 0 8 0 22 0 30 0 8 0 22 0 30 0 8 0 21 0 28 0
6 0 31 0 54 -2 24 -1 45 1 48 4 3 3 22 2 41 -2 18 -4 34 -4 34 0 0 4 18 4 40
0 22 -4 40 -5 40 -1 0 3 16 6 35 6 19 0 35 -3 35 -7 0 -4 6 -5 14 -2 21 8 106
10 106 2 0 -4 14 -3 30 2 17 5 30 5 30 0 0 -5 13 -5 30 0 17 5 30 5 30 0 0 -5
13 -5 30 0 17 5 30 5 30 0 0 -5 13 -5 30 0 16 5 30 5 30 0 0 -28 85 51 514
481 l480 479 -3374 0 -3374 0 479 -480z"/>
<path d="M80 3760 l0 -3374 479 480 c426 425 509 514 482 514 -4 0 -5 22 -1
50 3 27 3 55 -1 62 -4 6 -4 19 1 29 5 9 7 19 4 22 -9 9 -10 127 -1 127 5 0 5
5 2 10 -6 10 -9 99 -5 125 4 25 2 86 -3 92 -4 3 -2 13 3 23 5 10 7 20 3 23 -7
8 -8 95 -1 102 2 3 2 27 -2 55 -4 27 -2 50 2 50 5 0 6 4 3 10 -6 9 -9 101 -5
125 3 16 1 78 -3 108 -3 15 0 30 5 33 4 3 6 10 3 15 -9 13 -12 89 -4 89 4 0 3
16 -1 34 -4 19 -5 38 -2 41 7 7 6 84 -1 92 -4 3 -2 13 3 23 5 10 7 20 3 23 -7
8 -8 95 -1 103 3 3 2 20 -2 39 -4 19 -5 37 -2 40 6 6 5 62 -1 108 -3 15 0 30
5 33 4 3 6 10 3 15 -9 13 -12 89 -4 89 4 0 3 16 -1 34 -4 19 -5 38 -2 41 7 7
6 84 -1 92 -4 3 -2 13 3 23 5 10 7 20 3 23 -7 8 -8 95 -1 102 2 3 2 27 -2 55
-4 27 -2 50 2 50 5 0 6 5 3 10 -6 10 -9 99 -5 125 4 25 2 86 -3 92 -4 3 -2 13
3 23 5 10 7 20 3 23 -7 8 -8 95 -1 102 2 3 2 27 -2 55 -4 27 -3 50 1 50 4 0 4
12 0 27 -4 16 -4 44 -1 65 4 20 4 42 -1 49 -4 7 -3 21 2 30 5 10 5 20 1 23 -5
3 -6 26 -2 50 4 25 3 51 -1 58 -4 6 -4 19 1 29 5 9 7 19 4 22 -9 9 -10 127 -1
127 5 0 5 5 2 10 -6 10 -9 99 -5 125 4 25 2 86 -3 92 -4 3 -2 13 3 23 5 10 7
20 3 23 -7 8 -8 95 -1 102 2 3 2 27 -2 55 -4 27 -3 50 1 50 4 0 4 12 0 27 -4
16 -4 44 -1 65 4 20 4 42 -1 49 -4 7 -3 21 2 30 5 10 5 20 1 23 -5 3 -6 26 -2
50 4 25 3 51 -1 58 -4 6 -4 19 1 29 5 9 7 19 4 22 -9 9 -10 127 -1 127 5 0 5
5 2 10 -6 10 -9 99 -5 125 4 25 2 86 -3 92 -4 3 -2 13 3 23 5 10 7 20 3 23 -7
8 -8 95 -1 102 2 3 2 27 -2 55 -4 27 -3 50 1 50 4 0 4 12 0 27 -4 14 -4 47 -1
72 3 25 4 55 2 66 -1 11 -219 236 -482 500 l-480 479 0 -3374z"/>
<path d="M6796 6651 c-452 -453 -478 -481 -474 -510 3 -17 1 -31 -3 -31 -4 0
-3 -16 1 -34 4 -19 5 -38 2 -41 -7 -7 -6 -84 1 -92 4 -3 2 -13 -3 -23 -5 -10
-7 -20 -3 -23 7 -8 8 -95 1 -102 -2 -3 -2 -27 2 -55 4 -27 2 -50 -2 -50 -5 0
-6 -5 -3 -10 6 -10 9 -99 5 -125 -4 -25 -2 -86 3 -92 4 -3 2 -13 -3 -23 -5
-10 -7 -20 -3 -23 7 -8 8 -95 1 -102 -2 -3 -2 -27 2 -55 4 -27 2 -50 -2 -50
-5 0 -6 -5 -3 -10 6 -10 9 -99 5 -125 -4 -25 -2 -86 3 -92 4 -3 2 -13 -3 -23
-5 -10 -7 -20 -3 -23 7 -8 8 -95 1 -103 -3 -3 -2 -20 2 -39 4 -19 5 -37 2 -40
-7 -7 -6 -84 1 -92 4 -3 2 -13 -3 -23 -5 -10 -7 -20 -3 -23 7 -8 8 -95 1 -102
-2 -3 -2 -27 2 -55 4 -27 2 -50 -2 -50 -5 0 -6 -5 -3 -10 6 -10 9 -99 5 -125
-4 -25 -2 -86 3 -92 4 -3 2 -13 -3 -23 -5 -10 -7 -20 -3 -23 7 -8 8 -95 1
-102 -2 -3 -2 -27 2 -55 4 -27 2 -50 -2 -50 -5 0 -6 -5 -3 -10 6 -10 9 -99 5
-125 -3 -17 -1 -78 3 -108 3 -15 0 -30 -5 -33 -4 -3 -6 -10 -3 -15 9 -13 12
-89 4 -89 -4 0 -3 -16 1 -34 4 -19 5 -38 2 -41 -7 -7 -6 -84 1 -92 4 -3 2 -13
-3 -23 -5 -10 -7 -20 -3 -23 7 -8 8 -95 1 -102 -2 -3 -2 -27 2 -55 4 -27 2
-50 -2 -50 -5 0 -6 -5 -3 -10 6 -10 9 -99 5 -125 -4 -25 -2 -86 3 -92 4 -3 2
-13 -3 -23 -5 -10 -7 -20 -3 -23 7 -8 8 -95 1 -102 -2 -3 -2 -27 2 -55 4 -27
2 -50 -2 -50 -5 0 -6 -5 -3 -10 6 -10 9 -99 5 -125 -4 -25 -2 -86 3 -92 4 -3
2 -13 -3 -23 -5 -10 -7 -20 -3 -23 7 -8 8 -95 1 -102 -2 -3 -2 -27 2 -55 4
-27 2 -50 -2 -50 -5 0 -6 -5 -3 -10 6 -10 9 -99 5 -125 -4 -25 -2 -86 3 -92 4
-3 2 -13 -3 -23 -5 -10 -7 -20 -3 -23 7 -8 8 -95 1 -102 -2 -3 -2 -27 2 -55 4
-27 2 -50 -2 -50 -5 0 -6 -5 -3 -10 6 -10 9 -99 5 -125 -3 -17 -1 -78 3 -108
3 -15 1 -30 -4 -33 -5 -2 -5 -15 0 -27 4 -12 7 -26 5 -32 -2 -5 212 -226 476
-490 l480 -479 0 3372 c0 1854 -1 3372 -2 3372 -2 0 -218 -216 -482 -479z"/>
<path d="M1393 6082 l-32 -3 -1 -352 c-1 -194 -1 -359 -1 -367 0 -8 0 -116 0
-240 0 -124 0 -232 0 -240 0 -8 0 -116 0 -240 0 -124 0 -232 0 -240 0 -8 0
-116 0 -240 0 -124 0 -232 0 -240 0 -8 0 -512 0 -1120 0 -608 0 -1112 0 -1120
-1 -8 0 -65 1 -127 l2 -111 61 -1 c110 -1 181 0 240 2 31 1 57 -1 57 -4 0 -4
15 -4 33 0 17 4 45 5 61 1 16 -3 68 -3 117 0 48 3 102 3 121 0 18 -3 46 -3 62
0 16 3 63 3 103 0 41 -3 76 -3 78 -1 2 2 53 3 112 2 94 -2 194 -1 212 1 3 0 9
0 14 -1 8 -2 133 -3 145 -1 4 1 52 1 107 1 55 0 123 -1 150 -1 28 0 103 1 168
2 64 2 117 0 117 -3 0 -4 16 -3 34 1 19 4 37 5 40 3 5 -5 60 -5 189 0 31 1 57
-1 57 -4 0 -4 16 -3 34 1 19 4 37 6 39 3 4 -3 157 -6 182 -3 6 1 57 1 115 0
93 -1 193 0 209 2 3 0 9 0 14 -1 8 -2 134 -3 145 -1 10 2 127 1 138 -1 5 -1
14 -1 19 0 6 1 57 2 115 1 93 -1 193 0 209 2 3 0 9 0 14 -1 8 -2 134 -3 145
-1 10 2 127 1 138 -1 5 -1 14 -1 19 0 6 1 57 2 115 1 93 -1 193 0 209 2 3 0 9
0 14 -1 8 -2 134 -3 145 -1 10 2 127 1 138 -1 5 -1 14 0 19 1 6 1 49 2 97 1
l88 0 0 267 c1 147 1 274 1 282 0 8 0 191 0 405 0 215 0 397 0 405 0 8 0 296
0 640 0 344 0 632 0 640 0 8 0 296 0 640 0 344 0 634 0 645 0 11 0 176 -1 366
l-1 347 -42 1 c-23 0 -69 0 -102 0 -33 0 -67 0 -75 0 -8 1 -31 1 -50 0 -19 0
-42 0 -50 0 -8 0 -40 0 -70 0 -30 0 -62 0 -70 0 -8 1 -31 1 -50 0 -19 0 -42 0
-50 0 -8 0 -40 0 -70 0 -30 0 -62 0 -70 0 -8 1 -31 1 -50 0 -19 0 -42 0 -50 0
-8 0 -40 0 -70 0 -30 0 -62 0 -70 0 -8 1 -31 1 -50 0 -19 0 -42 0 -50 0 -8 0
-40 0 -70 0 -30 0 -62 0 -70 0 -8 1 -31 1 -50 0 -19 0 -42 0 -50 0 -8 0 -40 0
-70 0 -30 0 -62 0 -70 0 -8 1 -31 1 -50 0 -19 0 -42 0 -50 0 -8 0 -40 0 -70 0
-30 0 -62 0 -70 0 -8 1 -31 1 -50 0 -19 0 -42 0 -50 0 -8 0 -40 0 -70 0 -30 0
-62 0 -70 0 -8 1 -31 1 -50 0 -19 0 -42 0 -50 0 -20 0 -242 0 -255 0 -5 -1
-35 0 -65 0 -30 0 -62 0 -70 0 -8 0 -49 0 -90 0 -41 0 -82 0 -90 0 -8 0 -40 0
-70 0 -30 0 -62 0 -70 0 -8 0 -49 0 -90 0 -41 0 -82 0 -90 0 -8 0 -40 0 -70 0
-30 0 -62 0 -70 0 -27 -1 -174 0 -220 2 -25 1 -52 1 -60 1 -8 -1 -78 -1 -155
-1 -77 0 -147 0 -155 0 -50 -2 -103 0 -110 4 -5 3 -11 2 -14 -3 -3 -4 -29 -5
-60 -2 -30 3 -62 3 -72 0 -9 -4 -37 -3 -61 0 -24 4 -46 4 -48 0 -2 -3 -28 -3
-59 0 -30 3 -62 3 -72 0 -9 -4 -37 -3 -61 0 -24 4 -46 4 -48 0 -2 -3 -28 -3
-59 0 -30 3 -62 3 -72 0 -9 -4 -37 -3 -61 0 -24 4 -46 4 -48 0 -2 -3 -28 -4
-57 -1 -29 3 -67 5 -85 3z m1754 -1172 c9 -25 20 -49 23 -55 4 -5 11 -21 15
-34 4 -13 14 -40 23 -60 9 -20 16 -38 17 -41 1 -5 6 -16 48 -110 11 -25 25
-61 32 -80 8 -19 39 -96 70 -170 31 -74 66 -160 78 -190 11 -30 24 -57 27 -60
3 -3 11 -23 19 -45 8 -22 38 -96 66 -165 66 -157 69 -163 67 -172 -1 -5 2 -8
8 -8 5 0 10 -4 10 -10 0 -9 105 -270 136 -337 7 -17 14 -37 15 -45 0 -7 13 14
29 47 15 33 26 63 23 68 -2 4 1 7 6 7 6 0 11 6 11 14 0 8 25 79 56 158 31 79
60 154 64 168 8 22 192 503 207 540 3 8 7 20 9 25 1 6 8 24 15 40 7 17 13 32
13 35 1 6 24 66 41 105 7 17 45 117 86 223 l73 192 240 1 c133 0 306 1 386 2
l145 2 2 -28 c2 -32 -3 -35 -73 -41 -62 -6 -127 -33 -144 -60 -39 -61 -40 -89
-37 -1081 1 -528 6 -970 9 -982 28 -94 68 -117 234 -132 5 -1 10 -16 10 -33
l-1 -33 -80 2 c-114 3 -815 2 -907 0 l-78 -3 0 33 c0 18 3 33 8 34 4 0 28 2
54 4 119 10 176 47 198 129 19 70 21 1925 3 1899 -7 -9 -13 -21 -13 -27 0 -8
-86 -236 -125 -331 -6 -16 -18 -46 -25 -65 -6 -19 -16 -44 -21 -55 -11 -25
-53 -137 -55 -147 -1 -5 -3 -11 -4 -15 -1 -5 -2 -11 -1 -15 0 -5 -3 -8 -9 -8
-5 0 -10 -6 -10 -12 0 -11 -51 -150 -85 -233 -5 -11 -9 -22 -10 -25 -1 -3 -7
-18 -13 -33 -7 -16 -12 -35 -12 -43 0 -8 -5 -14 -10 -14 -6 0 -9 -3 -8 -7 1
-5 -3 -23 -9 -41 -7 -18 -12 -34 -13 -37 0 -3 -8 -22 -17 -42 -33 -79 -36 -88
-39 -101 -1 -8 -9 -28 -17 -45 -8 -18 -33 -84 -57 -147 -23 -63 -46 -124 -51
-135 -12 -28 -132 -338 -174 -450 -27 -74 -27 -75 -55 -75 -22 0 -30 8 -46 42
-10 23 -19 45 -20 48 -1 10 -58 144 -100 238 -13 29 -24 55 -24 57 0 3 -25 62
-54 133 -55 127 -78 182 -81 192 -4 11 -28 68 -55 131 -17 37 -30 69 -30 72 0
2 -12 31 -27 63 -15 33 -27 61 -28 64 -3 11 -18 46 -30 75 -46 106 -94 224
-100 245 -4 14 -11 30 -15 35 -5 6 -25 51 -45 100 -20 50 -43 104 -50 120 -76
177 -115 271 -115 276 0 4 -12 33 -27 65 -15 33 -28 64 -29 69 -2 6 -16 42
-33 80 l-30 70 -1 -95 c-2 -410 1 -1629 5 -1686 10 -154 42 -228 116 -269 44
-23 126 -46 179 -50 22 -1 25 -6 25 -35 l0 -35 -50 2 c-125 4 -533 3 -562 -1
-34 -5 -48 7 -48 39 0 13 10 22 30 28 127 38 169 72 201 159 18 50 19 101 21
988 3 970 2 992 -38 1047 -21 30 -82 55 -144 59 -27 1 -53 3 -56 3 -4 1 -9 16
-11 34 l-3 32 417 0 418 0 17 -45z"/>
<path d="M1335 1122 c-3 -3 -20 -5 -38 -4 -30 2 -63 -29 -510 -476 -338 -339
-474 -481 -463 -485 9 -3 18 -2 21 2 3 5 20 5 39 1 19 -4 37 -5 40 -2 3 3 38
4 78 3 81 -2 79 -2 143 -1 24 1 49 -1 55 -5 5 -3 10 -1 10 5 0 6 4 9 9 6 5 -3
35 -6 67 -6 59 0 83 0 107 0 6 0 53 0 103 1 50 1 95 -1 100 -3 5 -3 18 -2 29
2 11 4 29 4 41 0 11 -5 27 -5 34 0 7 4 24 4 39 0 14 -4 35 -4 45 0 11 3 39 3
63 0 23 -4 43 -4 43 -1 0 5 80 6 105 1 6 -2 15 -1 20 0 23 4 177 0 186 -5 5
-4 9 -3 9 2 0 7 75 9 105 3 6 -2 13 -2 18 -1 4 1 54 2 112 1 58 0 112 -1 120
-1 8 1 26 1 40 1 14 0 33 0 43 0 9 0 28 0 42 -1 14 0 36 -1 50 -1 14 0 36 1
50 1 14 1 34 1 45 1 16 0 99 -1 173 -1 6 0 32 1 57 1 24 1 49 -1 55 -5 5 -3
10 -1 10 5 0 6 4 9 9 6 5 -3 35 -6 67 -6 59 0 83 0 107 0 6 0 53 0 103 1 50 1
95 -1 100 -3 5 -3 18 -2 29 2 11 4 29 4 41 0 11 -5 27 -5 34 0 7 4 24 4 39 0
14 -4 35 -4 45 0 11 3 39 3 63 0 23 -4 43 -4 43 -1 0 5 80 6 105 1 6 -2 15 -1
20 0 23 4 177 0 186 -5 5 -4 9 -3 9 2 0 7 75 9 105 3 6 -2 13 -2 18 -1 4 1 54
2 112 1 58 0 112 -1 120 -1 8 1 26 1 40 1 14 0 33 0 43 0 9 0 28 0 42 -1 32
-1 68 -1 100 0 14 1 34 1 45 1 16 0 99 -1 173 -1 6 0 32 1 57 1 24 1 49 -1 55
-5 5 -3 10 -1 10 5 0 6 4 9 9 6 5 -3 35 -6 67 -6 59 0 83 0 107 0 6 0 53 -1
102 0 50 0 98 0 108 0 38 0 68 0 82 0 8 0 23 0 33 0 44 1 101 1 147 0 28 0 56
-1 63 -1 6 1 23 1 37 1 14 0 33 0 43 0 9 0 28 0 42 -1 32 -1 68 -1 100 0 14 1
34 1 45 1 16 0 99 -1 173 -1 6 0 32 1 57 1 24 1 49 -1 55 -5 5 -3 10 -1 10 5
0 6 4 9 9 6 5 -3 35 -6 67 -6 59 0 83 0 107 0 6 0 53 0 103 1 50 1 95 -1 100
-3 5 -3 18 -2 29 2 11 4 29 4 41 0 11 -5 27 -5 34 0 7 4 24 4 39 0 14 -4 35
-4 45 0 11 3 39 3 63 0 23 -4 43 -4 43 -1 0 5 80 6 105 1 6 -2 15 -1 20 0 6 1
48 1 95 0 47 -1 90 -1 95 -1 39 2 102 2 110 1 6 -1 15 -1 20 0 6 1 30 2 54 1
l45 0 -479 479 -479 479 -49 -1 c-27 0 -51 3 -54 6 -3 3 -13 1 -22 -4 -10 -5
-23 -5 -31 0 -7 4 -24 4 -36 0 -14 -6 -26 -5 -29 0 -3 6 -15 6 -30 0 -13 -5
-27 -6 -29 -1 -3 4 -25 5 -48 2 -24 -4 -56 -4 -73 -1 -16 4 -37 3 -46 -1 -8
-4 -21 -4 -29 1 -7 4 -24 4 -36 0 -14 -6 -26 -5 -29 0 -3 6 -15 6 -30 0 -13
-5 -27 -6 -29 -1 -3 4 -25 5 -48 2 -24 -4 -56 -4 -73 -1 -16 4 -37 3 -46 -1
-8 -4 -21 -4 -29 1 -7 4 -24 4 -36 0 -14 -6 -26 -5 -29 0 -3 6 -15 6 -30 0
-13 -5 -27 -6 -29 -1 -3 4 -25 5 -48 2 -24 -4 -56 -4 -73 -1 -16 4 -37 3 -46
-1 -8 -4 -21 -4 -29 1 -7 4 -24 4 -36 0 -14 -6 -26 -5 -29 0 -3 6 -15 6 -30 0
-13 -5 -27 -6 -29 -1 -3 4 -25 5 -48 2 -24 -4 -56 -4 -73 -1 -16 4 -37 3 -46
-1 -8 -4 -21 -4 -29 1 -7 4 -24 4 -36 0 -14 -6 -26 -5 -29 0 -3 6 -15 6 -30 0
-13 -5 -27 -6 -29 -1 -3 4 -25 5 -48 2 -24 -4 -56 -4 -73 -1 -16 4 -37 3 -46
-1 -8 -4 -21 -4 -29 1 -7 4 -24 4 -36 0 -14 -6 -26 -5 -29 0 -3 6 -15 6 -30 0
-13 -5 -27 -6 -29 -1 -3 4 -25 5 -48 2 -24 -4 -56 -4 -73 -1 -16 4 -37 3 -46
-1 -8 -4 -21 -4 -29 1 -7 4 -24 4 -36 0 -14 -6 -26 -5 -29 0 -3 6 -15 6 -29 0
-13 -5 -27 -6 -30 -2 -8 7 -95 6 -103 -2 -3 -2 -15 -1 -28 4 -13 5 -26 6 -29
3 -7 -8 -132 -6 -145 1 -5 4 -12 2 -16 -3 -3 -6 -15 -7 -29 -1 -12 4 -29 4
-36 0 -8 -5 -21 -5 -30 0 -9 5 -22 5 -30 0 -8 -5 -18 -6 -24 -3 -11 8 -105 7
-113 0 -3 -3 -15 -2 -28 3 -13 5 -25 6 -29 3 -7 -7 -115 -7 -122 0 -4 3 -17 2
-30 -3 -13 -5 -26 -5 -29 -1 -3 5 -21 5 -40 1 -19 -4 -35 -4 -35 0 0 5 -12 5
-27 1 -16 -5 -36 -5 -47 -1 -19 6 -85 4 -93 -4 -3 -3 -15 -1 -28 4 -13 5 -26
6 -29 3 -7 -8 -132 -6 -145 1 -5 4 -12 2 -16 -3 -3 -6 -15 -7 -29 -1 -12 4
-29 4 -36 0 -8 -5 -21 -5 -30 0 -9 5 -22 5 -30 0 -8 -5 -18 -6 -24 -3 -11 8
-105 7 -113 0 -3 -3 -15 -2 -28 3 -13 5 -25 6 -29 3 -3 -3 -30 -5 -61 -5 -31
0 -58 2 -61 5 -4 3 -17 2 -30 -3 -13 -5 -26 -5 -29 -1 -3 5 -21 5 -40 1 -19
-4 -35 -4 -35 0 0 5 -12 5 -27 1 -16 -5 -36 -5 -47 -1 -19 6 -85 4 -93 -4 -3
-3 -15 -1 -28 4 -13 5 -26 6 -29 3 -7 -8 -132 -6 -145 1 -5 4 -12 2 -16 -3 -3
-6 -15 -7 -29 -1 -12 4 -29 4 -36 0 -8 -5 -21 -5 -30 0 -9 5 -22 5 -30 0 -8
-5 -18 -6 -24 -3 -11 8 -105 7 -113 0 -3 -3 -15 -2 -28 3 -13 5 -26 6 -30 2z"/>
</g>
</svg>
