<svg id="SvgjsSvg1000" xmlns="http://www.w3.org/2000/svg" version="1.1" xmlns:xlink="http://www.w3.org/1999/xlink" xmlns:svgjs="http://svgjs.com/svgjs" width="45" height="46"><defs id="SvgjsDefs1001"></defs><path id="SvgjsPath1007" d="M23 52L23 23L52 23L52 52ZM22.4142 21.0001L16.4142 15L58.5858 15L52.5858 21.0001ZM52.5858 54.0001L58.5858 60.00020000000001L16.4142 60.00020000000001L22.4142 54.0001ZM21 52.5859L15 58.5861L15 16.4142L21 22.4144ZM54 22.4144L60 16.4142L60 58.5861L54 52.5859ZM46.0011 30.5889C46.214600000000004 30.499299999999998 46.5589 30.444 47.0341 30.4236L47.0341 30.0001C46.249 30.0412 45.1402 30.0622 43.7077 30.0622L42.209700000000005 30.0622L38.30480000000001 40.278999999999996L34.0382 30.000099999999996C33.10850000000001 30.041199999999996 31.996300000000005 30.062199999999997 30.701500000000003 30.062199999999997C29.923300000000005 30.062199999999997 29.3103 30.041199999999996 28.862600000000004 30.000099999999996L28.862600000000004 30.423599999999997C29.330900000000003 30.443999999999996 29.671900000000004 30.499299999999998 29.885300000000004 30.588899999999995C30.098800000000004 30.678399999999996 30.245200000000004 30.843599999999995 30.324400000000004 31.084599999999995C30.403600000000004 31.325599999999994 30.443200000000004 31.711599999999994 30.443200000000004 32.2418L30.443200000000004 41.7664C30.443200000000004 42.4899 30.403600000000004 43.0321 30.324400000000004 43.393699999999995C30.245200000000004 43.755199999999995 30.097100000000005 44.0237 29.880200000000006 44.19949999999999C29.663200000000007 44.37499999999999 29.324000000000005 44.49379999999999 28.862600000000004 44.555699999999995L28.862600000000004 44.97919999999999C29.310300000000005 44.93809999999999 29.923300000000005 44.91729999999999 30.701500000000003 44.91729999999999C31.679500000000004 44.91729999999999 32.4405 44.93809999999999 32.984500000000004 44.97919999999999L32.984500000000004 44.555699999999995C32.3509 44.49379999999999 31.894600000000004 44.3732 31.615800000000004 44.19429999999999C31.336800000000004 44.01519999999999 31.152600000000003 43.731199999999994 31.063100000000002 43.34179999999999C30.9735 42.95279999999999 30.928800000000003 42.34139999999999 30.928800000000003 41.507999999999996L30.928800000000003 31.373899999999995L36.6415 45.00019999999999L36.9825 45.00019999999999L42.0858 31.673399999999994L42.0858 42.7375C42.0858 43.2679 42.042699999999996 43.6537 41.9566 43.8947C41.8706 44.1358 41.7122 44.3011 41.481500000000004 44.3905C41.2507 44.480000000000004 40.880500000000005 44.5349 40.370900000000006 44.5557L40.370900000000006 44.9792C41.0872 44.9381 42.199400000000004 44.9173 43.7077 44.9173C45.1402 44.9173 46.249 44.9381 47.0341 44.9792L47.0341 44.5557C46.5658 44.5349 46.223200000000006 44.480000000000004 46.0062 44.3905C45.7893 44.301100000000005 45.6412 44.1358 45.562 43.8947C45.4829 43.6537 45.4432 43.2679 45.4432 42.7375L45.4432 32.2418C45.4432 31.711599999999997 45.4829 31.325599999999998 45.562 31.0846C45.6412 30.8436 45.7876 30.6784 46.0011 30.5889Z " fill="#ffffff" transform="matrix(1,0,0,1,-15,-15)"></path></svg>